<svg class="svg-icon" style="vertical-align: middle;fill: currentColor;overflow: hidden;" viewBox="0 0 1024 1024" version="1.1" xmlns="http://www.w3.org/2000/svg"><path d="M213.853867 476.279467c-5.000533-5.000533-13.098667-5.000533-18.0992 0l-51.2 51.2c-3.6608 3.652267-4.7616 7.569067-2.773333 12.347733S148.4288 546.133333 153.6 546.133333l34.133333 0 0 88.533333c0 8.533333 8.533333 17.066667 17.066667 17.066667s17.066667-8.533333 17.066667-17.066667L221.866667 546.133333l34.133333 0c5.1712 0 9.838933-1.518933 11.8272-6.2976s0.887467-9.4976-2.773333-13.149867L213.853867 476.279467z"  /><path d="M256 341.333333l-34.133333 0 0-82.133333c0-8.533333-8.533333-17.066667-17.066667-17.066667s-17.066667 8.533333-17.066667 17.066667L187.733333 341.333333l-34.133333 0c-5.1712 0-9.838933 4.718933-11.8272 9.4976s-0.887467 11.0848 2.773333 14.7456l51.2 51.601067c5.000533 5.000533 13.098667 5.1968 18.0992 0.196267l51.2-51.0976c3.6608-3.6608 4.7616-10.709333 2.773333-15.496533S261.1712 341.333333 256 341.333333z"  /><path d="M811.6224 364.032c-7.202133-19.771733-27.042133-33.058133-49.373867-33.058133-6.2976 0-12.4416 1.066667-18.261333 3.191467-5.410133 1.962667-11.511467 5.666133-17.006933 10.001067-9.6768-20.9664-30.882133-34.730667-54.237867-34.730667-6.9632 0-13.841067 1.220267-20.4288 3.618133-13.115733 4.778667-23.927467 13.764267-30.941867 25.6256-11.153067-13.149867-27.7504-21.188267-45.602133-21.188267-6.9632 0-13.832533 1.220267-20.4288 3.618133-15.530667 5.6576-29.1584 16.674133-37.384533 30.225067-2.6112 4.3008-4.650667 8.8064-6.109867 13.44-13.064533-20.1472-28.040533-40.925867-42.0096-54.894933-25.4976-25.4976-62.8992-55.893333-96.273067-55.893333-5.879467 0-11.485867 0.955733-16.648533 2.833067-16.2048 5.896533-28.561067 18.6112-33.8944 34.8672-5.572267 17.015467-2.7904 35.746133 7.645867 51.4048 7.944533 11.912533 18.491733 18.978133 29.661867 26.461867 16.708267 11.1872 35.6352 23.8592 55.210667 58.120533 23.1424 40.490667 51.182933 113.501867 66.1504 154.325333l-64.392533-31.7952c-9.3952-4.386133-19.3536-6.6048-29.602133-6.6048-26.897067 0-51.669333 15.829333-63.095467 40.3456-16.349867 35.063467-1.245867 76.842667 33.0496 92.817067 0.580267 0.3072 59.3664 31.735467 140.782933 69.700267l13.312 6.229333c52.155733 24.490667 101.418667 47.633067 158.523733 47.633067l0.008533 0c27.195733 0 54.434133-5.102933 83.2512-15.5904 101.265067-36.855467 116.650667-100.0192 123.733333-161.544533C884.087467 564.0192 814.592 372.1728 811.6224 364.032zM851.84 620.270933C845.175467 678.203733 832.520533 728.746667 744.789333 760.686933c-25.975467 9.4464-50.338133 14.045867-74.496 14.045867l-0.008533 0c-51.387733 0-96-20.949333-147.643733-45.2096l-13.371733-6.254933c-80.725333-37.649067-138.9312-68.770133-140.151467-69.384533-22.135467-10.325333-31.684267-36.846933-21.2992-59.118933 7.3472-15.7696 22.6304-25.557333 39.893333-25.557333 6.4768 0 12.791467 1.408 18.517333 4.078933l92.552533 45.696c4.6592 2.312533 10.231467 1.570133 14.122667-1.8688 3.899733-3.4304 5.333333-8.874667 3.643733-13.781333-1.800533-5.1968-44.424533-128.273067-78.754133-188.356267-22.570667-39.483733-46.045867-55.210667-63.189333-66.688-9.7792-6.545067-17.493333-11.716267-22.6048-19.387733-6.050133-9.079467-7.739733-19.729067-4.625067-29.2352 2.8672-8.746667 9.5488-15.598933 18.312533-18.7904 17.7152-6.485333 50.619733 11.648 86.075733 47.104 32.3584 32.3584 73.3184 109.508267 73.728 110.2848 3.140267 5.9392 10.3424 8.448 16.512 5.717333 6.152533-2.730667 9.1392-9.7536 6.8352-16.0768l-11.6736-32.0768c-4.036267-11.093333-3.1232-21.6064 2.7136-31.232 5.248-8.661333 14.088533-15.752533 24.2432-19.447467 3.780267-1.373867 7.7056-2.0736 11.6736-2.0736 14.301867 0 27.195733 9.0368 32.085333 22.468267l16.0512 44.100267c2.414933 6.638933 9.770667 10.069333 16.401067 7.645867 6.638933-2.414933 10.069333-9.762133 7.645867-16.401067l-7.287467-20.053333c-3.114667-8.567467-2.705067-17.834667 1.143467-26.103467s10.692267-14.532267 19.268267-17.646933c3.7632-1.373867 7.697067-2.0736 11.665067-2.0736 14.293333 0 27.1872 9.0368 32.0768 22.4768l18.978133 52.1216c2.423467 6.647467 9.787733 10.0608 16.401067 7.645867 6.647467-2.423467 10.077867-9.770667 7.645867-16.4096l-11.246933-30.9248c3.464533-3.797333 10.717867-9.745067 16.162133-11.7248 3.003733-1.092267 6.203733-1.646933 9.4976-1.646933 11.434667 0 21.845333 6.664533 25.326933 16.213333C807.176533 426.6496 856.925867 576.085333 851.84 620.270933z"  /></svg>